<?xml version="1.0" encoding="UTF-8" standalone="no"?>
<!DOCTYPE svg PUBLIC "-//W3C//DTD SVG 1.1//EN" "http://www.w3.org/Graphics/SVG/1.1/DTD/svg11.dtd">
<svg width="100%" height="100%" viewBox="0 0 33 34" version="1.1" xmlns="http://www.w3.org/2000/svg" xmlns:xlink="http://www.w3.org/1999/xlink" xml:space="preserve" xmlns:serif="http://www.serif.com/" style="fill-rule:evenodd;clip-rule:evenodd;stroke-linejoin:round;stroke-miterlimit:2;">
    <g transform="matrix(1,0,0,-1,0,34)">
        <g transform="matrix(1,0,0,-1,0,34)">
            <path d="M17.5,2.176C17.185,2.062 16.849,2 16.5,2C16.151,2 15.815,2.062 15.5,2.176C15.185,2.062 14.849,2 14.5,2C12.706,2 11.25,3.63 11.25,5.637C11.25,11.596 14.5,25.5 14.5,25.5C14.5,25.5 14.942,23.609 15.5,20.923C16.058,23.609 16.5,25.5 16.5,25.5C16.5,25.5 16.942,23.609 17.5,20.923C18.058,23.609 18.5,25.5 18.5,25.5C18.5,25.5 21.75,11.596 21.75,5.637C21.75,3.63 20.294,2 18.5,2C18.151,2 17.815,2.062 17.5,2.176ZM17.415,3.138C17.127,3.049 16.819,3 16.5,3C16.181,3 15.873,3.049 15.585,3.138C15.297,3.049 14.989,3 14.67,3C13.029,3 11.697,4.283 11.697,5.863C11.697,10.554 14.67,21.5 14.67,21.5C14.67,21.5 15.075,20.011 15.585,17.897C16.096,20.011 16.5,21.5 16.5,21.5C16.5,21.5 16.904,20.011 17.415,17.897C17.925,20.011 18.33,21.5 18.33,21.5C18.33,21.5 21.303,10.554 21.303,5.863C21.303,4.283 19.971,3 18.33,3C18.011,3 17.703,3.049 17.415,3.138Z"/>
        </g>
        <g transform="matrix(1,0,0,-0.66137,0,26.8252)">
            <path d="M20.358,18.235C27.049,19.065 32,22.005 32,25.5C32,29.639 25.055,33 16.5,33C7.945,33 1,29.639 1,25.5C1,22.005 5.951,19.065 12.642,18.235C12.711,18.549 12.782,18.864 12.855,19.178C7.137,19.949 2.938,22.489 2.938,25.5C2.938,29.097 8.931,32.022 16.346,32.062C16.445,32.383 16.5,32.558 16.5,32.558C16.5,32.558 16.555,32.383 16.654,32.062C24.069,32.022 30.062,29.097 30.062,25.5C30.063,22.489 25.863,19.949 20.145,19.178C20.218,18.863 20.289,18.549 20.358,18.235Z"/>
        </g>
        <g transform="matrix(1,0,0,-1,0,34)">
            <path d="M31.968,24.569C31.989,24.717 32,24.868 32,25.02C32,28.872 25.055,32 16.5,32C7.945,32 1,28.872 1,25.02C1,24.868 1.011,24.717 1.032,24.569C1.55,28.211 8.282,31.097 16.5,31.097C24.718,31.097 31.45,28.211 31.968,24.569Z"/>
        </g>
        <g transform="matrix(1,0,0,-1,0,34)">
            <path d="M17.938,11.647C17.499,11.874 17.012,12 16.5,12C15.589,12 14.76,11.602 14.137,10.949L14.137,9.613L15.543,8.242L17.938,11.647ZM18.86,5.047C19.56,5.779 20,6.831 20,8C20,9.157 19.569,10.201 18.88,10.931L16.34,7.48L18.86,5.047ZM14.137,5.051C14.76,4.398 15.589,4 16.5,4C17.041,4 17.553,4.141 18.011,4.391L14.137,8.26L14.137,5.051Z"/>
        </g>
    </g>
</svg>
